<svg width="32" height="32" viewBox="0 0 32 32" fill="none" xmlns="http://www.w3.org/2000/svg">
<g clip-path="url(#clip0_5695_196)">
<g clip-path="url(#clip1_5695_196)">
<path d="M13.0978 29.7143C12.598 29.7143 12.115 29.4426 11.8686 28.9676C11.5143 28.2874 11.7775 27.4496 12.4565 27.0946C14.4082 26.0743 16.4113 24.9281 17.5792 23.1205L17.5881 23.1066C18.6164 21.5548 19.0271 19.6114 19.3607 17.7542C20.0218 14.0538 20.0247 10.864 19.3696 8.00533C19.3666 7.99343 19.3646 7.98153 19.3616 7.96964C18.8292 5.32617 16.7825 2.58058 13.5442 2.78781C10.4009 3.09023 9.06675 6.28301 8.55013 8.162C8.34724 8.90169 7.58517 9.33599 6.84685 9.13173C6.10853 8.92846 5.67504 8.16398 5.87892 7.42528C7.08141 3.04561 9.78923 0.347612 13.3066 0.0213933C13.3185 0.0204017 13.3294 0.0194102 13.3413 0.0184186C15.5176 -0.127339 17.5317 0.593516 19.1677 2.10166C20.6196 3.44124 21.6508 5.3232 22.0734 7.40148C22.8088 10.627 22.8137 14.1737 22.0873 18.2431C21.7201 20.2916 21.2183 22.6416 19.901 24.6346C18.367 27.0054 15.9155 28.4173 13.7372 29.5556C13.5323 29.6627 13.3136 29.7133 13.0978 29.7133V29.7143Z" fill="url(#paint0_linear_5695_196)"/>
<path d="M22.2411 29.7143C21.7413 29.7143 21.2594 29.4426 21.012 28.9686C20.6577 28.2893 20.9209 27.4504 21.5988 27.0954C23.5504 26.0751 25.5534 24.9268 26.7201 23.12C26.7231 23.1151 26.7261 23.1111 26.729 23.1062C27.7592 21.5513 28.1848 19.5284 28.5024 17.7544C29.1625 14.0527 29.1665 10.8627 28.5113 8.00489C28.5084 7.99299 28.5064 7.98109 28.5034 7.96919C27.97 5.32654 25.9235 2.58077 22.6874 2.78901C19.5483 3.09145 18.2104 6.28444 17.6928 8.16355C17.4889 8.9023 16.7259 9.33563 15.9887 9.13235C15.2514 8.92808 14.8179 8.16355 15.0218 7.4248C16.2291 3.04484 18.9367 0.346663 22.4499 0.0214141C22.4618 0.0204225 22.4727 0.0194309 22.4845 0.0184393C24.6607 -0.127328 26.6746 0.592583 28.3105 2.10182C29.7622 3.4405 30.7934 5.32158 31.216 7.40001C31.9523 10.6247 31.9562 14.1717 31.2298 18.2433C30.8637 20.29 30.3619 22.6391 29.0418 24.6342C27.5089 27.0042 25.0576 28.4172 22.8804 29.5566C22.6755 29.6637 22.4568 29.7143 22.2401 29.7143H22.2411Z" fill="url(#paint1_linear_5695_196)"/>
<path d="M22.2857 31.0583C19.944 31.7045 17.4315 31.8882 15.0074 31.9855C12.8296 32.0441 10.6469 31.9249 8.49388 31.635C5.9536 31.3293 3.61988 30.7525 2.17894 28.7809C1.67247 28.1069 1.37554 27.3584 1.1809 26.581C0.159027 21.942 0.0984502 17.2097 0.853185 12.5577C1.08457 11.1858 1.32191 9.82372 2.19979 8.67712C3.06476 7.52356 4.4193 6.68272 5.9387 6.31441C10.3122 5.3465 14.9042 5.27204 19.3621 5.85478C21.2777 6.10098 23.3115 6.49013 24.7306 7.73501C26.7624 9.48917 26.6879 10.9951 25.818 13.2844C25.5509 14.0498 25.2629 14.8053 24.958 15.5627C23.9798 17.8549 23.665 18.9221 24.6839 21.2471C25.0514 22.1505 25.4099 23.0489 25.7326 23.9612C26.2867 25.4851 26.8349 27.0486 25.8786 28.4553C25.1189 29.6625 23.7892 30.6066 22.3035 31.0533L22.2847 31.0593L22.2857 31.0583Z" fill="url(#paint2_linear_5695_196)"/>
<path d="M17.8968 12.3526C17.6405 11.7579 17.2684 11.2408 16.8013 10.8172C16.3422 10.3936 15.7821 10.0634 15.1369 9.83076C14.4986 9.60304 13.79 9.4857 13.0301 9.4857C12.2701 9.4857 11.5536 9.60105 10.9153 9.83076C10.2751 10.0634 9.71496 10.3936 9.24788 10.8222C8.78376 11.2458 8.41663 11.7629 8.16033 12.3575C7.90403 12.9502 7.77142 13.6085 7.77142 14.3165C7.77142 15.0245 7.90304 15.6927 8.16033 16.2904C8.41663 16.89 8.78376 17.4071 9.24788 17.8406C9.71199 18.2692 10.2751 18.6093 10.9124 18.847C11.5526 19.0797 12.2641 19.2 13.0291 19.2C13.794 19.2 14.5006 19.0846 15.1388 18.8519C15.7841 18.6123 16.3461 18.2742 16.8063 17.8436C17.2734 17.4131 17.6395 16.894 17.8968 16.2934C18.1531 15.6937 18.2857 15.0295 18.2857 14.3195C18.2857 13.6095 18.1541 12.9552 17.8968 12.3605H17.8948L17.8968 12.3536V12.3526Z" fill="white"/>
<path d="M16.6952 13.1623C16.5501 12.8263 16.3398 12.5349 16.0763 12.2951C15.8167 12.0562 15.4999 11.8689 15.1357 11.7381C14.7754 11.6092 14.3747 11.5428 13.9443 11.5428C13.514 11.5428 13.1093 11.6083 12.7491 11.7381C12.3868 11.8699 12.071 12.0562 11.8065 12.2981C11.5439 12.5369 11.3366 12.8293 11.1915 13.1653C11.0464 13.5003 10.9714 13.8719 10.9714 14.2713C10.9714 14.6707 11.0464 15.0483 11.1915 15.3863C11.3366 15.7253 11.5439 16.0166 11.8065 16.2614C12.069 16.5033 12.3868 16.6955 12.7471 16.8293C13.1093 16.9612 13.511 17.0286 13.9434 17.0286C14.3757 17.0286 14.7754 16.9631 15.1357 16.8323C15.5009 16.6965 15.8187 16.5062 16.0783 16.2624C16.3418 16.0186 16.5491 15.7263 16.6942 15.3873C16.8393 15.0483 16.9143 14.6737 16.9143 14.2723C16.9143 13.8709 16.8393 13.5022 16.6942 13.1663H16.6932V13.1623H16.6952Z" fill="#222222"/>
</g>
</g>
<defs>
<linearGradient id="paint0_linear_5695_196" x1="5.82844" y1="14.8569" x2="22.6296" y2="14.8569" gradientUnits="userSpaceOnUse">
<stop stop-color="#CD65FD"/>
<stop offset="1" stop-color="#5100BE"/>
</linearGradient>
<linearGradient id="paint1_linear_5695_196" x1="14.9723" y1="14.8569" x2="31.7712" y2="14.8569" gradientUnits="userSpaceOnUse">
<stop stop-color="#CD65FD"/>
<stop offset="1" stop-color="#5100BE"/>
</linearGradient>
<linearGradient id="paint2_linear_5695_196" x1="16.984" y1="7.09733" x2="10.6316" y2="30.8392" gradientUnits="userSpaceOnUse">
<stop stop-color="#CD65FD"/>
<stop offset="0.31" stop-color="#A53EF5"/>
<stop offset="1" stop-color="#6B0AE5"/>
</linearGradient>
<clipPath id="clip0_5695_196">
<rect width="32" height="32" fill="white"/>
</clipPath>
<clipPath id="clip1_5695_196">
<rect width="32" height="32" fill="white"/>
</clipPath>
</defs>
</svg>
