<svg width="464" height="348" viewBox="0 0 464 348" fill="none" xmlns="http://www.w3.org/2000/svg">
<path d="M455.264 305.758H8.8173C3.96375 305.758 0 301.794 0 296.94C0 292.087 3.96375 288.123 8.8173 288.123H455.183C460.036 288.123 464 292.087 464 296.94C464 301.794 460.036 305.758 455.183 305.758H455.264Z" fill="#7B7B7B"/>
<path opacity="0.2" d="M412.39 297.75H42.8722C41.6588 297.75 40.769 296.779 40.769 295.646C40.769 294.433 41.7397 293.543 42.8722 293.543H412.39C413.603 293.543 414.493 294.514 414.493 295.646C414.493 296.86 413.522 297.75 412.39 297.75Z" fill="#191919"/>
<path d="M146.656 295.08L106.776 29.4287C106.776 29.0243 107.019 28.6198 107.504 28.6198H114.137C114.461 28.6198 114.784 28.8625 114.865 29.1861L154.745 294.837" fill="#4C4C4C"/>
<path d="M105.725 295.08L65.8452 29.4287C65.8452 29.0242 66.0879 28.6198 66.5732 28.6198H73.2064C73.53 28.6198 73.8536 28.8625 73.9345 29.186L113.815 294.837" fill="#4C4C4C"/>
<path d="M105.32 255.362H142.935C145.038 255.362 146.656 253.663 146.656 251.641C146.656 249.537 144.958 247.92 142.935 247.92H105.32C103.217 247.92 101.599 249.618 101.599 251.641C101.599 253.744 103.298 255.362 105.32 255.362Z" fill="#4C4C4C"/>
<path d="M99.9007 220.254H137.516C139.619 220.254 141.237 218.556 141.237 216.533C141.237 214.43 139.538 212.812 137.516 212.812H99.9007C97.7975 212.812 96.1797 214.511 96.1797 216.533C96.1797 218.637 97.8784 220.254 99.9007 220.254Z" fill="#4C4C4C"/>
<path d="M94.4803 185.147H132.095C134.199 185.147 135.816 183.448 135.816 181.426C135.816 179.323 134.118 177.705 132.095 177.705H94.4803C92.3771 177.705 90.7593 179.404 90.7593 181.426C90.7593 183.529 92.458 185.147 94.4803 185.147Z" fill="#4C4C4C"/>
<path d="M89.0594 150.121H126.675C128.778 150.121 130.396 148.422 130.396 146.399C130.396 144.296 128.697 142.678 126.675 142.678H89.0594C86.9562 142.678 85.3384 144.377 85.3384 146.399C85.3384 148.503 87.0371 150.121 89.0594 150.121Z" fill="#4C4C4C"/>
<path d="M84.8544 118.411H122.469C124.573 118.411 126.19 116.712 126.19 114.69C126.19 112.586 124.492 110.968 122.469 110.968H84.8544C82.7512 110.968 81.1333 112.667 81.1333 114.69C81.1333 116.793 82.8321 118.411 84.8544 118.411Z" fill="#4C4C4C"/>
<path d="M79.4335 83.3032H117.049C119.152 83.3032 120.77 81.6045 120.77 79.5821C120.77 77.4789 119.071 75.8611 117.049 75.8611H79.4335C77.3303 75.8611 75.7124 77.5598 75.7124 79.5821C75.7124 81.6854 77.4112 83.3032 79.4335 83.3032Z" fill="#4C4C4C"/>
<path d="M75.2269 51.5933H112.842C114.945 51.5933 116.563 49.8946 116.563 47.8722C116.563 45.769 114.864 44.1512 112.842 44.1512H75.2269C73.1237 44.1512 71.5059 45.8499 71.5059 47.8722C71.5059 49.9755 73.2046 51.5933 75.2269 51.5933Z" fill="#4C4C4C"/>
<path d="M33.8124 295.08L73.6925 29.4287C73.6925 29.0243 73.4498 28.6198 72.9644 28.6198H66.3312C66.0076 28.6198 65.6841 28.8625 65.6032 29.1861L25.7231 294.837" fill="#F8F7FF"/>
<path d="M74.6615 295.08L114.542 29.4287C114.542 29.0243 114.299 28.6198 113.814 28.6198H107.18C106.857 28.6198 106.533 28.8625 106.452 29.1861L66.5723 294.837" fill="#F8F7FF"/>
<path d="M75.0681 255.362H37.453C35.3498 255.362 33.7319 253.663 33.7319 251.641C33.7319 249.538 35.4307 247.92 37.453 247.92H75.0681C77.1713 247.92 78.7891 249.618 78.7891 251.641C78.7891 253.744 77.0904 255.362 75.0681 255.362Z" fill="#F8F7FF"/>
<path d="M80.4875 220.254H42.8724C40.7692 220.254 39.1514 218.556 39.1514 216.533C39.1514 214.43 40.8501 212.812 42.8724 212.812H80.4875C82.5907 212.812 84.2085 214.511 84.2085 216.533C84.2085 218.637 82.5098 220.254 80.4875 220.254Z" fill="#F8F7FF"/>
<path d="M85.9069 185.147H48.2919C46.1887 185.147 44.5708 183.448 44.5708 181.426C44.5708 179.323 46.2696 177.705 48.2919 177.705H85.9069C88.0101 177.705 89.628 179.404 89.628 181.426C89.628 183.529 87.9292 185.147 85.9069 185.147Z" fill="#F8F7FF"/>
<path d="M91.4079 150.121H53.7928C51.6896 150.121 50.0718 148.422 50.0718 146.399C50.0718 144.296 51.7705 142.678 53.7928 142.678H91.4079C93.5111 142.678 95.1289 144.377 95.1289 146.399C95.1289 148.503 93.4302 150.121 91.4079 150.121Z" fill="#F8F7FF"/>
<path d="M95.5339 118.411H57.9188C55.8156 118.411 54.1978 116.712 54.1978 114.69C54.1978 112.586 55.8965 110.968 57.9188 110.968H95.5339C97.6371 110.968 99.2549 112.667 99.2549 114.69C99.2549 116.793 97.5562 118.411 95.5339 118.411Z" fill="#F8F7FF"/>
<path d="M100.953 83.3032H63.3378C61.2346 83.3032 59.6167 81.6044 59.6167 79.5821C59.6167 77.4789 61.3154 75.8611 63.3378 75.8611H100.953C103.056 75.8611 104.674 77.5598 104.674 79.5821C104.674 81.6853 102.975 83.3032 100.953 83.3032Z" fill="#F8F7FF"/>
<path d="M105.16 51.5933H67.5453C65.4421 51.5933 63.8242 49.8946 63.8242 47.8722C63.8242 45.769 65.5229 44.1512 67.5453 44.1512H105.16C107.264 44.1512 108.881 45.8499 108.881 47.8722C108.881 49.9755 107.183 51.5933 105.16 51.5933Z" fill="#F8F7FF"/>
<path d="M114.139 29.9141H65.7649C64.4706 29.9141 63.4999 28.7007 63.8235 27.4873L64.3088 24.8178C64.4706 23.928 65.3604 23.2 66.2502 23.2H114.624C115.918 23.2 116.889 24.4134 116.565 25.6268L116.08 28.2962C115.918 29.186 115.028 29.9141 114.139 29.9141Z" fill="#8433F1"/>
<path d="M321.144 263.855L319.365 255.362L318.718 252.126L317.99 248.809L314.026 229.719C313.783 228.667 312.812 227.858 311.761 227.858H301.083L299.142 214.43H309.496C310.952 214.43 312.084 213.055 311.761 211.599L309.981 203.105L309.334 199.869L308.606 196.553L304.642 177.462C304.4 176.411 303.429 175.602 302.377 175.602H293.398L292.266 168.159C292.266 167.836 291.942 167.593 291.538 167.593H284.905C284.5 167.593 284.176 167.998 284.176 168.402L285.228 175.683H195.356L194.224 168.24C194.224 167.917 193.9 167.674 193.496 167.674H186.863C186.458 167.674 186.135 168.079 186.135 168.483L187.186 175.763H175.457C174.001 175.763 172.868 177.139 173.192 178.595L176.832 196.148L178.207 202.782L180.31 212.812C180.553 213.864 181.524 214.673 182.575 214.673H192.93L194.871 228.101H184.84C183.384 228.101 182.252 229.476 182.575 230.932L186.216 248.486L187.591 255.119L189.694 265.15C189.937 266.201 190.907 267.01 191.959 267.01H200.695L204.74 294.595C204.74 294.918 205.064 295.161 205.468 295.161H212.101C212.506 295.161 212.829 294.756 212.829 294.352L208.785 267.01H298.656L302.701 294.595C302.701 294.918 303.024 295.161 303.429 295.161H310.062C310.467 295.161 310.79 294.756 310.79 294.352L306.746 267.01H318.718C320.174 267.01 321.306 265.635 320.983 264.179L321.144 263.855ZM293.075 227.777H203.203L201.262 214.349H291.133L293.075 227.777Z" fill="#4C4C4C"/>
<path d="M260.797 294.837H267.431C267.754 294.837 268.078 294.595 268.159 294.271L286.764 168.24C286.764 167.836 286.521 167.431 286.036 167.431H279.403C279.079 167.431 278.756 167.674 278.675 167.998L260.069 294.028C260.069 294.433 260.312 294.837 260.797 294.837Z" fill="#F8F7FF"/>
<path d="M162.837 294.837H169.471C169.794 294.837 170.118 294.595 170.199 294.271L188.804 168.24C188.804 167.836 188.561 167.431 188.076 167.431H181.443C181.119 167.431 180.796 167.674 180.715 167.998L162.109 294.028C162.109 294.433 162.352 294.837 162.837 294.837Z" fill="#F8F7FF"/>
<path d="M163.56 214.349H290.238C291.37 214.349 292.341 213.54 292.503 212.489L299.621 178.271C299.945 176.815 298.812 175.44 297.356 175.44H170.678C169.546 175.44 168.575 176.249 168.413 177.3L161.295 211.518C160.971 212.974 162.104 214.349 163.56 214.349Z" fill="#F8F7FF"/>
<path d="M180.872 175.44L204.735 214.349H218.082L194.219 175.44H180.872Z" fill="#8433F1"/>
<path d="M163.723 199.708L172.702 214.349H182.167L166.069 188.221L163.723 199.708Z" fill="#8433F1"/>
<path d="M218.327 175.44L242.271 214.349H251.736L227.792 175.44H218.327Z" fill="#8433F1"/>
<path d="M245.99 175.44L269.934 214.349H279.318L255.455 175.44H245.99Z" fill="#8433F1"/>
<path d="M283.526 175.44H274.062L293.638 207.312L296.064 195.825L283.526 175.44Z" fill="#8433F1"/>
<path d="M154.178 266.687H280.855C281.988 266.687 282.959 265.878 283.12 264.826L290.239 230.609C290.562 229.153 289.43 227.777 287.974 227.777H161.296C160.164 227.777 159.193 228.586 159.031 229.638L151.913 263.855C151.589 265.312 152.721 266.687 154.178 266.687Z" fill="#F8F7FF"/>
<path d="M171.406 227.777L195.35 266.687H208.698L184.834 227.777H171.406Z" fill="#8433F1"/>
<path d="M154.338 252.045L163.317 266.687H172.701L156.684 240.558L154.338 252.045Z" fill="#8433F1"/>
<path d="M208.942 227.777L232.886 266.687H242.27L218.406 227.777H208.942Z" fill="#8433F1"/>
<path d="M236.606 227.777L260.551 266.687H269.934L246.071 227.777H236.606Z" fill="#8433F1"/>
<path d="M274.141 227.777H264.676L284.252 259.649L286.679 248.162L274.141 227.777Z" fill="#8433F1"/>
<path d="M168.741 235.786H175.455C176.911 235.786 178.124 234.572 178.124 233.116C178.124 231.66 176.911 230.447 175.455 230.447H168.741C167.285 230.447 166.071 231.66 166.071 233.116C166.071 234.572 167.285 235.786 168.741 235.786Z" fill="#F8F7FF"/>
<path d="M265.812 250.994H270.261C271.232 250.994 272.041 250.185 272.041 249.214C272.041 248.243 271.232 247.434 270.261 247.434H265.812C264.841 247.434 264.032 248.243 264.032 249.214C264.032 250.185 264.841 250.994 265.812 250.994Z" fill="#F8F7FF"/>
<path d="M196.973 183.448H203.687C205.143 183.448 206.357 182.235 206.357 180.779C206.357 179.323 205.143 178.109 203.687 178.109H196.973C195.517 178.109 194.304 179.323 194.304 180.779C194.304 182.235 195.517 183.448 196.973 183.448Z" fill="#F8F7FF"/>
<path d="M180.876 200.921H188.965C190.421 200.921 191.634 199.708 191.634 198.252C191.634 196.795 190.421 195.582 188.965 195.582H180.876C179.419 195.582 178.206 196.795 178.206 198.252C178.206 199.708 179.419 200.921 180.876 200.921Z" fill="#F8F7FF"/>
<path d="M273.417 186.118H281.506C282.962 186.118 284.176 184.904 284.176 183.448C284.176 181.992 282.962 180.779 281.506 180.779H273.417C271.961 180.779 270.748 181.992 270.748 183.448C270.748 184.904 271.961 186.118 273.417 186.118Z" fill="#F8F7FF"/>
<path d="M336.03 108.865H330.368C329.966 108.865 329.64 109.191 329.64 109.594V294.109C329.64 294.512 329.966 294.838 330.368 294.838H336.03C336.432 294.838 336.758 294.512 336.758 294.109V109.594C336.758 109.191 336.432 108.865 336.03 108.865Z" fill="#F8F7FF"/>
<path d="M278.352 88.9658L329.153 139.766C331.418 142.031 335.058 142.031 337.242 139.766L388.042 88.9658C390.307 86.7008 390.307 83.0606 388.042 80.8765L337.242 30.076C334.977 27.811 331.337 27.811 329.153 30.076L278.352 80.8765C276.087 83.1415 276.087 86.7817 278.352 88.9658Z" fill="#8433F1"/>
<path d="M287.412 87.4289L329.8 129.817C331.661 131.677 334.735 131.677 336.595 129.817L378.983 87.4289C380.843 85.5684 380.843 82.4945 378.983 80.6339L336.595 38.2462C334.735 36.3857 331.661 36.3857 329.8 38.2462L287.412 80.6339C285.552 82.4945 285.552 85.5684 287.412 87.4289Z" fill="#F8F7FF"/>
<path d="M367.012 242.257C366.769 241.448 365.637 241.448 365.394 242.257L359.246 259.487H373.079L367.093 242.257H367.012Z" fill="#8433F1"/>
<path d="M384.162 291.683L379.146 277.122H352.937L347.76 291.602C347.517 292.168 348.003 292.734 348.569 292.734H383.353C383.919 292.734 384.404 292.168 384.162 291.602V291.683Z" fill="#8433F1"/>
<path d="M372.997 259.568H359.165L352.936 277.203H379.145L372.997 259.568Z" fill="#F8F7FF"/>
<path d="M388.448 289.903H343.633C343.008 289.903 342.501 290.41 342.501 291.035V293.705C342.501 294.33 343.008 294.837 343.633 294.837H388.448C389.073 294.837 389.58 294.33 389.58 293.705V291.035C389.58 290.41 389.073 289.903 388.448 289.903Z" fill="#3D008F"/>
<path d="M366.201 261.51H368.142C368.951 261.51 369.598 260.863 369.598 260.054C369.598 259.245 368.951 258.598 368.142 258.598H366.201C365.392 258.598 364.745 259.245 364.745 260.054C364.745 260.863 365.392 261.51 366.201 261.51Z" fill="#F8F7FF"/>
<path d="M361.752 277.203H357.87C357.303 277.203 356.899 276.798 356.899 276.232C356.899 275.666 357.303 275.261 357.87 275.261H361.752C362.319 275.261 362.723 275.666 362.723 276.232C362.723 276.798 362.319 277.203 361.752 277.203Z" fill="#F8F7FF"/>
<path d="M371.056 286.02H373.968C374.777 286.02 375.424 285.373 375.424 284.564C375.424 283.755 374.777 283.108 373.968 283.108H371.056C370.247 283.108 369.6 283.755 369.6 284.564C369.6 285.373 370.247 286.02 371.056 286.02Z" fill="#F8F7FF"/>
<path d="M364.747 254.634H363.776C363.21 254.634 362.805 254.229 362.805 253.663C362.805 253.097 363.21 252.692 363.776 252.692H364.747C365.313 252.692 365.717 253.097 365.717 253.663C365.717 254.229 365.313 254.634 364.747 254.634Z" fill="#F8F7FF"/>
<path d="M147.793 294.433L149.249 295.727C149.653 296.051 150.22 296.213 150.705 295.97L152.485 295.323C158.794 292.977 163.324 287.8 164.538 281.571L167.369 266.687C167.45 266.121 167.207 265.554 166.641 265.312L164.133 264.098C161.706 262.966 159.118 262.076 156.448 261.591C153.941 261.105 151.271 260.943 148.683 261.024L145.447 261.186C144.8 261.186 144.314 261.591 144.234 262.157L141.402 276.879C140.189 283.189 142.535 289.741 147.631 294.271L147.793 294.433Z" fill="#191919"/>
<path d="M154.264 272.592C153.456 272.43 152.889 271.621 153.051 270.812L171.818 173.337C171.98 172.528 172.789 171.962 173.598 172.123C174.407 172.285 174.973 173.094 174.811 173.903L156.044 271.379C155.882 272.188 155.073 272.754 154.264 272.592Z" fill="#B0B0B0"/>
<path d="M154.183 273.886C153.05 273.644 152.322 272.592 152.484 271.379L157.985 243.066C157.985 242.824 158.308 242.662 158.551 242.743L161.787 243.39C162.029 243.39 162.191 243.713 162.11 243.956L156.609 272.268C156.367 273.401 155.315 274.129 154.102 273.967L154.183 273.886Z" fill="#333333"/>
<path d="M175.823 170.736L172.487 170.094L171.309 176.21L174.646 176.853L175.823 170.736Z" fill="#8433F1"/>
<path d="M169.876 159.342L168.258 167.593C167.935 169.292 169.067 170.91 170.766 171.234L176.509 172.366C178.208 172.69 179.826 171.557 180.15 169.858L181.767 161.607C181.929 160.798 181.363 159.989 180.554 159.828L171.575 158.129C170.766 157.967 169.957 158.533 169.795 159.342H169.876ZM174.568 169.292L173.678 169.13C171.979 168.807 170.847 167.189 171.17 165.49L172.06 160.96L179.098 162.335L178.208 166.865C177.885 168.564 176.267 169.697 174.568 169.373V169.292Z" fill="#8433F1"/>
<path d="M178.776 159.182L173.851 158.233L173.239 161.411L178.164 162.359L178.776 159.182Z" fill="#333333"/>
<path opacity="0.2" d="M357.059 313.038H427.597C428.406 313.038 429.053 312.391 429.053 311.582C429.053 310.773 428.406 310.126 427.597 310.126H357.059C356.25 310.126 355.603 310.773 355.603 311.582C355.603 312.391 356.25 313.038 357.059 313.038Z" fill="#191919"/>
<path opacity="0.2" d="M51.8516 312.229H122.39C123.199 312.229 123.846 311.582 123.846 310.773C123.846 309.964 123.199 309.317 122.39 309.317H51.8516C51.0426 309.317 50.3955 309.964 50.3955 310.773C50.3955 311.582 51.0426 312.229 51.8516 312.229Z" fill="#191919"/>
<path opacity="0.2" d="M96.9102 324.282H259.99C260.799 324.282 261.446 323.635 261.446 322.826C261.446 322.017 260.799 321.37 259.99 321.37H96.9102C96.1013 321.37 95.4541 322.017 95.4541 322.826C95.4541 323.635 96.1013 324.282 96.9102 324.282Z" fill="#191919"/>
<path d="M88.0909 243.551C87.8482 242.742 86.7157 242.742 86.473 243.551L80.3252 260.782H94.1578L88.1718 243.551H88.0909Z" fill="#8433F1"/>
<path d="M105.241 292.977L100.225 278.416H74.0161L68.839 292.896C68.5963 293.462 69.0816 294.028 69.6479 294.028H104.432C104.998 294.028 105.483 293.462 105.241 292.896V292.977Z" fill="#8433F1"/>
<path d="M94.0755 260.782H80.3238L74.0142 278.497H100.223L94.0755 260.782Z" fill="#F8F7FF"/>
<path d="M109.529 291.197H64.714C64.0886 291.197 63.5815 291.704 63.5815 292.33V294.999C63.5815 295.625 64.0886 296.132 64.714 296.132H109.529C110.154 296.132 110.661 295.625 110.661 294.999V292.33C110.661 291.704 110.154 291.197 109.529 291.197Z" fill="#3D008F"/>
<path d="M89.3026 259.811H87.2803C86.4761 259.811 85.8242 260.463 85.8242 261.267C85.8242 262.071 86.4761 262.723 87.2803 262.723H89.3026C90.1068 262.723 90.7587 262.071 90.7587 261.267C90.7587 260.463 90.1068 259.811 89.3026 259.811Z" fill="#F8F7FF"/>
<path d="M82.8316 278.497H78.9487C78.3825 278.497 77.978 278.093 77.978 277.526C77.978 276.96 78.3825 276.556 78.9487 276.556H82.8316C83.3978 276.556 83.8023 276.96 83.8023 277.526C83.8023 278.093 83.3978 278.497 82.8316 278.497Z" fill="#F8F7FF"/>
<path d="M92.2148 287.314H95.127C95.9359 287.314 96.5831 286.667 96.5831 285.858C96.5831 285.049 95.9359 284.402 95.127 284.402H92.2148C91.4059 284.402 90.7588 285.049 90.7588 285.858C90.7588 286.667 91.4059 287.314 92.2148 287.314Z" fill="#F8F7FF"/>
<path d="M85.8252 255.928H84.8545C84.2883 255.928 83.8838 255.524 83.8838 254.957C83.8838 254.391 84.2883 253.987 84.8545 253.987H85.8252C86.3915 253.987 86.7959 254.391 86.7959 254.957C86.7959 255.524 86.3915 255.928 85.8252 255.928Z" fill="#F8F7FF"/>
<path d="M333.924 92.4441H329.88C329.394 92.4441 329.071 92.0397 328.99 91.6352L328.262 59.7635C328.262 59.2782 328.666 58.8737 329.152 58.8737H334.652C335.138 58.8737 335.542 59.2782 335.542 59.7635L334.814 91.6352C334.814 92.1206 334.41 92.4441 333.924 92.4441ZM334.652 103.607H329.232C328.747 103.607 328.343 103.203 328.343 102.717V97.2977C328.343 96.8123 328.747 96.4079 329.232 96.4079H334.652C335.138 96.4079 335.542 96.8123 335.542 97.2977V102.717C335.542 103.203 335.138 103.607 334.652 103.607Z" fill="#4C4C4C"/>
</svg>
